<svg width="25" height="24" viewBox="0 0 25 24" fill="none" xmlns="http://www.w3.org/2000/svg">
<g clip-path="url(#clip0_1535_2505)">
<circle cx="15" cy="9.5" r="1.5" transform="rotate(90 15 9.5)" fill="rgb(28, 134, 255)"/>
<circle cx="10" cy="14.5" r="1.5" transform="rotate(90 10 14.5)" fill="rgb(28, 134, 255)"/>
<path d="M22.3982 10.4063C23.4537 11.2066 23.4537 12.7934 22.3982 13.5937L21.1929 14.5076C20.617 14.9443 20.3215 15.6577 20.42 16.3737L20.626 17.8722C20.8064 19.1845 19.6844 20.3064 18.3722 20.126L16.8737 19.92C16.1577 19.8215 15.4443 20.117 15.0076 20.6929L14.0937 21.8982C13.2934 22.9537 11.7066 22.9537 10.9063 21.8982L9.9924 20.6929C9.55573 20.117 8.84231 19.8215 8.12631 19.92L6.62778 20.126C5.31555 20.3064 4.19357 19.1844 4.374 17.8722L4.58004 16.3737C4.67848 15.6577 4.38298 14.9443 3.80708 14.5076L2.60176 13.5937C1.5463 12.7934 1.5463 11.2066 2.60176 10.4063L3.80708 9.4924C4.38298 9.05573 4.67848 8.34231 4.58004 7.62631L4.374 6.12778C4.19357 4.81555 5.31555 3.69357 6.62778 3.874L8.12631 4.08004C8.84231 4.17848 9.55573 3.88298 9.9924 3.30708L10.9063 2.10176C11.7066 1.0463 13.2934 1.0463 14.0937 2.10176L15.0076 3.30708C15.4443 3.88298 16.1577 4.17848 16.8737 4.08004L18.3722 3.874C19.6845 3.69357 20.8064 4.81555 20.626 6.12778L20.42 7.62631C20.3215 8.34231 20.617 9.05573 21.1929 9.4924L22.3982 10.4063Z" stroke="rgb(28, 134, 255)" stroke-width="2" stroke-linecap="round"/>
<path d="M9.5 9L15.1569 14.6569" stroke="rgb(28, 134, 255)" stroke-width="2" stroke-linecap="round"/>
</g>
<defs>
<clipPath id="clip0_1535_2505">
<rect width="23.5569" height="24" fill="white" transform="translate(24.5) rotate(90)"/>
</clipPath>
</defs>
</svg>
