<svg width="24" height="24" viewBox="0 0 24 24" fill="none" xmlns="http://www.w3.org/2000/svg">
<path d="M3.22266 4C3.22266 3.44771 3.67037 3 4.22266 3L9.42266 3C9.97494 3 10.4227 3.44772 10.4227 4L10.4227 9C10.4227 10.9882 8.81088 12.6 6.82266 12.6V12.6C4.83443 12.6 3.22266 10.9882 3.22266 9L3.22266 4Z" stroke="rgb(28, 134, 255)" stroke-width="2" stroke-miterlimit="10" stroke-linecap="round"/>
<path d="M5.62109 3.75L5.62109 7.75" stroke="rgb(28, 134, 255)" stroke-miterlimit="10" stroke-linecap="round"/>
<path d="M8.02344 3.75L8.02344 7.75" stroke="rgb(28, 134, 255)" stroke-miterlimit="10" stroke-linecap="round"/>
<path d="M5.02344 12.6016L5.02344 19.2016C5.02344 20.1957 5.82933 21.0016 6.82344 21.0016V21.0016C7.81755 21.0016 8.62344 20.1957 8.62344 19.2016L8.62344 12.6016" stroke="rgb(28, 134, 255)" stroke-width="2" stroke-miterlimit="10" stroke-linecap="round"/>
<path d="M15.8242 12L15.8242 19.2C15.8242 20.1941 16.6301 21 17.6242 21V21C18.6183 21 19.4242 20.1941 19.4242 19.2L19.4242 12" stroke="rgb(28, 134, 255)" stroke-width="2" stroke-miterlimit="10" stroke-linecap="round"/>
<ellipse cx="17.6234" cy="7.8" rx="3.6" ry="4.8" stroke="rgb(28, 134, 255)" stroke-width="2" stroke-miterlimit="10" stroke-linecap="round"/>
</svg>
